<svg width="45" height="66" fill="none" xmlns="http://www.w3.org/2000/svg"><path d="M20.6 41a1 1 0 0 1-.8-.4l-7-7.9a5.4 5.4 0 0 1 4.4-8.7c1.3 0 2.5.5 3.5 1.3a5.5 5.5 0 0 1 9 4.1c0 1.3-.5 2.5-1.3 3.4l-7 7.9c-.2.2-.4.3-.8.3Zm-6-9.5 6 6.9 6.3-7c.5-.5.7-1.2.7-2 0-1.8-1.5-3.3-3.3-3.3-1 0-2 .5-2.7 1.3-.3.3-.6.4-1 .4l-.7-.4a3.7 3.7 0 0 0-2.7-1.3 3.3 3.3 0 0 0-3.3 3.3c-.1.9.3 1.6.7 2.1-.1 0-.1 0 0 0Z" fill="#000"/><rect x="24.1" y="15" width="20" height="20" rx="10" fill="#7DB54F"/><path d="M30.3 26.8h1.4v-5.5l-.3.5-1.1.8-.4-.5 2.2-1.7h.3v6.4h1.4v.7h-3.5v-.7ZM38 22c0 .3 0 .7-.2 1l-.5 1.2a10.9 10.9 0 0 1-1.5 2.1l-.5.4h2.8v.7h-4v-.3a32.8 32.8 0 0 0 1.9-2.2 9.7 9.7 0 0 0 1-1.9l.2-.9c0-.3-.1-.6-.3-.8-.2-.2-.5-.3-.9-.3l-.7.1-.6.4-.4-.6.9-.4a3 3 0 0 1 1-.2l.8.1a1.5 1.5 0 0 1 .9 1v.6Z" fill="#fff"/></svg>